<mxfile host="65bd71144e">
    <diagram id="JXqJvyb0z61g47dd_JLR" name="ページ1">
        <mxGraphModel dx="2032" dy="513" grid="1" gridSize="10" guides="1" tooltips="1" connect="1" arrows="1" fold="1" page="1" pageScale="1" pageWidth="827" pageHeight="1169" math="0" shadow="0">
            <root>
                <mxCell id="0"/>
                <mxCell id="1" parent="0"/>
                <mxCell id="2" value="frontend" style="rounded=0;whiteSpace=wrap;html=1;fontSize=17;" vertex="1" parent="1">
                    <mxGeometry x="70" y="420" width="160" height="60" as="geometry"/>
                </mxCell>
                <mxCell id="4" value="openAI" style="rounded=0;whiteSpace=wrap;html=1;fontSize=17;" vertex="1" parent="1">
                    <mxGeometry x="390" y="420" width="160" height="60" as="geometry"/>
                </mxCell>
                <mxCell id="5" value="backend" style="rounded=0;whiteSpace=wrap;html=1;fontSize=17;" vertex="1" parent="1">
                    <mxGeometry x="230" y="420" width="160" height="60" as="geometry"/>
                </mxCell>
                <mxCell id="6" value="" style="rounded=0;whiteSpace=wrap;html=1;" vertex="1" parent="1">
                    <mxGeometry x="70" y="480" width="160" height="680" as="geometry"/>
                </mxCell>
                <mxCell id="8" value="" style="rounded=0;whiteSpace=wrap;html=1;" vertex="1" parent="1">
                    <mxGeometry x="390" y="480" width="160" height="680" as="geometry"/>
                </mxCell>
                <mxCell id="9" value="" style="rounded=0;whiteSpace=wrap;html=1;" vertex="1" parent="1">
                    <mxGeometry x="230" y="480" width="160" height="680" as="geometry"/>
                </mxCell>
                <mxCell id="CmLEFIpM22bQbF-OgAvS-34" style="edgeStyle=none;html=1;exitX=0.5;exitY=1;exitDx=0;exitDy=0;entryX=0.5;entryY=0;entryDx=0;entryDy=0;fontSize=17;" edge="1" parent="1" source="11" target="CmLEFIpM22bQbF-OgAvS-33">
                    <mxGeometry relative="1" as="geometry"/>
                </mxCell>
                <mxCell id="11" value="送信ボタン押下" style="rounded=1;whiteSpace=wrap;html=1;fontSize=15;fillColor=#545c64;fontColor=#ffffff;strokeColor=#314354;" vertex="1" parent="1">
                    <mxGeometry x="90" y="560" width="120" height="60" as="geometry"/>
                </mxCell>
                <mxCell id="12" style="edgeStyle=none;html=1;exitX=0.5;exitY=1;exitDx=0;exitDy=0;fontSize=15;" edge="1" parent="1" source="13" target="11">
                    <mxGeometry relative="1" as="geometry"/>
                </mxCell>
                <mxCell id="13" value="" style="ellipse;whiteSpace=wrap;html=1;aspect=fixed;fontSize=15;fillColor=#a20025;fontColor=#ffffff;strokeColor=#6F0000;" vertex="1" parent="1">
                    <mxGeometry x="135" y="500" width="30" height="30" as="geometry"/>
                </mxCell>
                <mxCell id="29" value="◽️ 送信ボタン押してからの一連の動作" style="text;html=1;strokeColor=none;fillColor=none;align=left;verticalAlign=middle;whiteSpace=wrap;rounded=0;fontSize=18;" vertex="1" parent="1">
                    <mxGeometry x="70" y="390" width="480" height="30" as="geometry"/>
                </mxCell>
                <mxCell id="31" value="chatsコレクション操作系のトリガー&lt;br&gt;・送信ボタン&lt;br&gt;・テンプレート保存ボタン&lt;br&gt;・初期データ取得時" style="shape=note;whiteSpace=wrap;html=1;backgroundOutline=1;darkOpacity=0.05;fillColor=#60a917;fontColor=#ffffff;strokeColor=#2D7600;align=left;" vertex="1" parent="1">
                    <mxGeometry x="-170" y="390" width="130" height="140" as="geometry"/>
                </mxCell>
                <mxCell id="33" value="" style="endArrow=none;html=1;fontSize=17;entryX=0;entryY=0;entryDx=130;entryDy=85;entryPerimeter=0;exitX=-0.017;exitY=0.021;exitDx=0;exitDy=0;exitPerimeter=0;" edge="1" parent="1" source="6" target="31">
                    <mxGeometry width="50" height="50" relative="1" as="geometry">
                        <mxPoint x="230" y="450" as="sourcePoint"/>
                        <mxPoint x="280" y="400" as="targetPoint"/>
                    </mxGeometry>
                </mxCell>
                <mxCell id="CmLEFIpM22bQbF-OgAvS-36" style="edgeStyle=none;html=1;exitX=1;exitY=0.5;exitDx=0;exitDy=0;entryX=0;entryY=0.5;entryDx=0;entryDy=0;fontSize=17;" edge="1" parent="1" source="CmLEFIpM22bQbF-OgAvS-33" target="CmLEFIpM22bQbF-OgAvS-35">
                    <mxGeometry relative="1" as="geometry"/>
                </mxCell>
                <mxCell id="CmLEFIpM22bQbF-OgAvS-33" value="thread, user, message, ...&lt;br&gt;chatドキュメントのデータを送信" style="rounded=1;whiteSpace=wrap;html=1;fontSize=15;fillColor=#545c64;fontColor=#ffffff;strokeColor=#314354;" vertex="1" parent="1">
                    <mxGeometry x="85" y="660" width="130" height="90" as="geometry"/>
                </mxCell>
                <mxCell id="CmLEFIpM22bQbF-OgAvS-38" style="edgeStyle=none;html=1;exitX=1;exitY=0.5;exitDx=0;exitDy=0;entryX=0;entryY=0.5;entryDx=0;entryDy=0;fontSize=17;" edge="1" parent="1" source="CmLEFIpM22bQbF-OgAvS-35" target="CmLEFIpM22bQbF-OgAvS-37">
                    <mxGeometry relative="1" as="geometry"/>
                </mxCell>
                <mxCell id="CmLEFIpM22bQbF-OgAvS-35" value="openAIのapi叩く" style="rounded=1;whiteSpace=wrap;html=1;fontSize=15;fillColor=#545c64;fontColor=#ffffff;strokeColor=#314354;" vertex="1" parent="1">
                    <mxGeometry x="250" y="675" width="120" height="60" as="geometry"/>
                </mxCell>
                <mxCell id="CmLEFIpM22bQbF-OgAvS-40" style="edgeStyle=none;html=1;exitX=0.5;exitY=1;exitDx=0;exitDy=0;fontSize=17;" edge="1" parent="1" source="CmLEFIpM22bQbF-OgAvS-37" target="CmLEFIpM22bQbF-OgAvS-39">
                    <mxGeometry relative="1" as="geometry">
                        <Array as="points">
                            <mxPoint x="470" y="820"/>
                        </Array>
                    </mxGeometry>
                </mxCell>
                <mxCell id="CmLEFIpM22bQbF-OgAvS-37" value="結果をstreamで送信" style="rounded=1;whiteSpace=wrap;html=1;fontSize=15;fillColor=#545c64;fontColor=#ffffff;strokeColor=#314354;" vertex="1" parent="1">
                    <mxGeometry x="410" y="675" width="120" height="60" as="geometry"/>
                </mxCell>
                <mxCell id="CmLEFIpM22bQbF-OgAvS-43" style="edgeStyle=none;html=1;exitX=0;exitY=0.5;exitDx=0;exitDy=0;entryX=1;entryY=0.5;entryDx=0;entryDy=0;fontSize=17;" edge="1" parent="1" source="CmLEFIpM22bQbF-OgAvS-39" target="CmLEFIpM22bQbF-OgAvS-42">
                    <mxGeometry relative="1" as="geometry"/>
                </mxCell>
                <mxCell id="CmLEFIpM22bQbF-OgAvS-46" style="edgeStyle=none;html=1;exitX=0.5;exitY=1;exitDx=0;exitDy=0;fontSize=17;" edge="1" parent="1" source="CmLEFIpM22bQbF-OgAvS-39" target="CmLEFIpM22bQbF-OgAvS-45">
                    <mxGeometry relative="1" as="geometry"/>
                </mxCell>
                <mxCell id="CmLEFIpM22bQbF-OgAvS-39" value="そのままstreamでmessageのみ送信" style="rounded=1;whiteSpace=wrap;html=1;fontSize=15;fillColor=#545c64;fontColor=#ffffff;strokeColor=#314354;" vertex="1" parent="1">
                    <mxGeometry x="245" y="790" width="130" height="60" as="geometry"/>
                </mxCell>
                <mxCell id="CmLEFIpM22bQbF-OgAvS-42" value="messageを表示" style="rounded=1;whiteSpace=wrap;html=1;fontSize=15;fillColor=#545c64;fontColor=#ffffff;strokeColor=#CC0000;" vertex="1" parent="1">
                    <mxGeometry x="90" y="790" width="120" height="60" as="geometry"/>
                </mxCell>
                <mxCell id="CmLEFIpM22bQbF-OgAvS-50" style="edgeStyle=none;html=1;exitX=0.5;exitY=1;exitDx=0;exitDy=0;entryX=0.5;entryY=0;entryDx=0;entryDy=0;fontSize=17;" edge="1" parent="1" source="CmLEFIpM22bQbF-OgAvS-45" target="CmLEFIpM22bQbF-OgAvS-49">
                    <mxGeometry relative="1" as="geometry"/>
                </mxCell>
                <mxCell id="CmLEFIpM22bQbF-OgAvS-45" value="stream終了" style="rounded=1;whiteSpace=wrap;html=1;fontSize=15;fillColor=#545c64;fontColor=#ffffff;strokeColor=#314354;" vertex="1" parent="1">
                    <mxGeometry x="250" y="890" width="120" height="60" as="geometry"/>
                </mxCell>
                <mxCell id="CmLEFIpM22bQbF-OgAvS-52" style="edgeStyle=none;html=1;exitX=0.5;exitY=1;exitDx=0;exitDy=0;fontSize=17;" edge="1" parent="1" source="CmLEFIpM22bQbF-OgAvS-49" target="CmLEFIpM22bQbF-OgAvS-51">
                    <mxGeometry relative="1" as="geometry"/>
                </mxCell>
                <mxCell id="CmLEFIpM22bQbF-OgAvS-49" value="chatコレクションに保存" style="rounded=1;whiteSpace=wrap;html=1;fontSize=15;fillColor=#545c64;fontColor=#ffffff;strokeColor=#314354;" vertex="1" parent="1">
                    <mxGeometry x="250" y="990" width="120" height="60" as="geometry"/>
                </mxCell>
                <mxCell id="CmLEFIpM22bQbF-OgAvS-51" value="" style="ellipse;whiteSpace=wrap;html=1;aspect=fixed;fontSize=15;fillColor=#a20025;fontColor=#ffffff;strokeColor=#6F0000;" vertex="1" parent="1">
                    <mxGeometry x="295" y="1100" width="30" height="30" as="geometry"/>
                </mxCell>
            </root>
        </mxGraphModel>
    </diagram>
</mxfile>